# xmcd
#
# Track frame offsets:
#	150
#	17002
#	33543
#	50831
#	65948
#	81982
#	96834
#	113136
#	135515
#	153651
#	169611
#	188181
#
# Disc length: 2706 seconds
#
# Revision: 1
# Processed by: cddbd v1.5.2PL0 Copyright (c) Steve Scherf et al.
# Submitted via: audiograbber 1.80
#
DISCID=a70a900c
DTITLE=Jesse Terry - Empty Seat On A Plane
DYEAR=1900
DGENRE=
TTITLE0=Empty seat on a plane
TTITLE1=Let the blue skies go to your head
TTITLE2=Wishful thinking
TTITLE3=Grace on a train
TTITLE4=Tightrope
TTITLE5=Bitterroot valley
TTITLE6=Blue touches blue
TTITLE7=Coyotes
TTITLE8=Barefoot Child
TTITLE9=Scared of nothing
TTITLE10=Scenic Route
TTITLE11=Pear diver
EXTD=
EXTT0=
EXTT1=
EXTT2=
EXTT3=
EXTT4=
EXTT5=
EXTT6=
EXTT7=
EXTT8=
EXTT9=
EXTT10=
EXTT11=
PLAYORDER=
